<svg width="12" height="12" viewBox="0 0 12 12" fill="none" xmlns="http://www.w3.org/2000/svg">
<g clip-path="url(#clip0_525_157)">
<path d="M8.25 6C8.25 6.52031 8.22188 7.02188 8.17266 7.5H3.82734C3.77578 7.02188 3.75 6.52031 3.75 6C3.75 5.47969 3.77813 4.97812 3.82734 4.5H8.17266C8.22422 4.97812 8.25 5.47969 8.25 6ZM8.925 4.5H11.8102C11.9344 4.98047 12 5.48203 12 6C12 6.51797 11.9344 7.01953 11.8102 7.5H8.925C8.97422 7.01719 9 6.51562 9 6C9 5.48438 8.97422 4.98281 8.925 4.5ZM11.5641 3.75H8.82891C8.59453 2.25234 8.13047 0.998438 7.53281 0.196875C9.36797 0.682031 10.8609 2.01328 11.5617 3.75H11.5641ZM8.06953 3.75H3.93047C4.07344 2.89687 4.29375 2.14219 4.56328 1.53047C4.80937 0.977344 5.08359 0.576563 5.34844 0.323438C5.61094 0.075 5.82891 0 6 0C6.17109 0 6.38906 0.075 6.65156 0.323438C6.91641 0.576563 7.19062 0.977344 7.43672 1.53047C7.70859 2.13984 7.92656 2.89453 8.06953 3.75ZM3.17109 3.75H0.435938C1.13906 2.01328 2.62969 0.682031 4.46719 0.196875C3.86953 0.998438 3.40547 2.25234 3.17109 3.75ZM0.189844 4.5H3.075C3.02578 4.98281 3 5.48438 3 6C3 6.51562 3.02578 7.01719 3.075 7.5H0.189844C0.065625 7.01953 0 6.51797 0 6C0 5.48203 0.065625 4.98047 0.189844 4.5ZM4.56328 10.4672C4.29141 9.85781 4.07344 9.10313 3.93047 8.25H8.06953C7.92656 9.10313 7.70625 9.85781 7.43672 10.4672C7.19062 11.0203 6.91641 11.4211 6.65156 11.6742C6.38906 11.925 6.17109 12 6 12C5.82891 12 5.61094 11.925 5.34844 11.6766C5.08359 11.4234 4.80937 11.0227 4.56328 10.4695V10.4672ZM3.17109 8.25C3.40547 9.74766 3.86953 11.0016 4.46719 11.8031C2.62969 11.318 1.13906 9.98672 0.435938 8.25H3.17109ZM11.5641 8.25C10.8609 9.98672 9.37031 11.318 7.53516 11.8031C8.13281 11.0016 8.59453 9.74766 8.83125 8.25H11.5641Z" fill="#234EA1"/>
</g>
<defs>
<clipPath id="clip0_525_157">
<rect width="12" height="12" fill="white"/>
</clipPath>
</defs>
</svg>
