<svg width="11" height="12" viewBox="0 0 11 12" fill="none" xmlns="http://www.w3.org/2000/svg">
<path d="M8.92734 2.27578C7.94531 1.29141 6.6375 0.75 5.24766 0.75C2.37891 0.75 0.0445312 3.08437 0.0445312 5.95312C0.0445312 6.86953 0.283594 7.76484 0.738281 8.55469L0 11.25L2.75859 10.5258C3.51797 10.9406 4.37344 11.1586 5.24531 11.1586H5.24766C8.11406 11.1586 10.5 8.82422 10.5 5.95547C10.5 4.56563 9.90937 3.26016 8.92734 2.27578ZM5.24766 10.282C4.46953 10.282 3.70781 10.0734 3.04453 9.67969L2.8875 9.58594L1.25156 10.0148L1.6875 8.41875L1.58437 8.25469C1.15078 7.56563 0.923438 6.77109 0.923438 5.95312C0.923438 3.56953 2.86406 1.62891 5.25 1.62891C6.40547 1.62891 7.49062 2.07891 8.30625 2.89687C9.12187 3.71484 9.62344 4.8 9.62109 5.95547C9.62109 8.34141 7.63125 10.282 5.24766 10.282ZM7.61953 7.04297C7.49063 6.97734 6.85078 6.66328 6.73125 6.62109C6.61172 6.57656 6.525 6.55547 6.43828 6.68672C6.35156 6.81797 6.10313 7.10859 6.02578 7.19766C5.95078 7.28438 5.87344 7.29609 5.74453 7.23047C4.98047 6.84844 4.47891 6.54844 3.975 5.68359C3.84141 5.45391 4.10859 5.47031 4.35703 4.97344C4.39922 4.88672 4.37812 4.81172 4.34531 4.74609C4.3125 4.68047 4.05234 4.04063 3.94453 3.78047C3.83906 3.52734 3.73125 3.5625 3.65156 3.55781C3.57656 3.55313 3.48984 3.55313 3.40312 3.55313C3.31641 3.55313 3.17578 3.58594 3.05625 3.71484C2.93672 3.84609 2.60156 4.16016 2.60156 4.8C2.60156 5.43984 3.06797 6.05859 3.13125 6.14531C3.19688 6.23203 4.04766 7.54453 5.35312 8.10938C6.17812 8.46562 6.50156 8.49609 6.91406 8.43516C7.16484 8.39766 7.68281 8.12109 7.79062 7.81641C7.89844 7.51172 7.89844 7.25156 7.86563 7.19766C7.83516 7.13906 7.74844 7.10625 7.61953 7.04297Z" fill="#234EA1"/>
</svg>
