<svg width="390" height="248" viewBox="0 0 390 248" fill="none" xmlns="http://www.w3.org/2000/svg">
<g clip-path="url(#clip0_804_1218)">
<path fill-rule="evenodd" clip-rule="evenodd" d="M137.904 15.8409V12.891C137.904 12.2444 138.228 11.6786 138.754 11.3149C141.951 9.13277 152.836 1.85885 171.935 0.0807867C172.623 -3.45316e-05 178.612 0.0403761 184.884 0.0403761C191.034 0.0403761 197.468 0.0403761 199.613 0.0403761C200.018 0.0403761 200.341 0.363661 200.341 0.767767C200.341 1.17187 200.018 1.49516 199.613 1.49516H171.935C171.935 1.49516 159.229 2.18214 145.147 9.05195C145.026 9.13277 145.147 16.1642 145.147 16.1642L137.945 15.9218L137.904 15.8409Z" fill="#234EA1"/>
<path fill-rule="evenodd" clip-rule="evenodd" d="M141.222 10.426C138.956 10.426 137.135 12.2445 137.135 14.5075V22.7513H145.309V14.5075C145.309 12.2445 143.488 10.426 141.222 10.426Z" fill="#234EA1"/>
<path d="M195.243 2.7478H174.241V14.3052H195.243V2.7478Z" fill="#234EA1"/>
<path fill-rule="evenodd" clip-rule="evenodd" d="M197.59 1.41431H171.895V2.9095C171.895 4.24305 172.987 5.29373 174.282 5.29373H195.162C196.497 5.29373 197.549 4.20264 197.549 2.9095V1.41431H197.59Z" fill="#234EA1"/>
<path fill-rule="evenodd" clip-rule="evenodd" d="M207.139 35.3592H123.58C123.58 30.9949 127.1 27.4791 131.47 27.4387H199.208C203.579 27.4387 207.099 30.9949 207.139 35.3592Z" fill="#234EA1"/>
<path fill-rule="evenodd" clip-rule="evenodd" d="M131.43 24.5696C131.43 24.5696 131.43 23.8826 131.43 23.2764C131.43 22.7107 131.43 22.2258 132.32 21.8621C151.015 14.669 178.652 8.52656 197.468 7.03137C198.399 6.95055 199.168 7.63753 199.168 8.52656V24.5696C199.168 24.5696 199.047 24.8929 198.844 24.8929H131.389V24.5696H131.43Z" fill="#234EA1"/>
<path fill-rule="evenodd" clip-rule="evenodd" d="M182.011 103.572L181.282 108.947L177.317 107.735L175.091 153.56H189.011C190.913 153.56 192.532 152.146 192.774 150.247L198.318 108.462C198.156 108.22 197.994 108.018 197.752 107.816C197.59 107.654 196.902 107.129 196.335 106.725L194.11 105.108L194.474 102.401L194.838 99.8547L195.202 97.1472L197.752 96.1773C198.075 96.0561 198.399 95.8945 198.682 95.7732C198.723 95.6116 198.804 95.4095 198.804 95.2479C199.37 86.9637 199.856 78.5179 200.341 70.355L200.422 68.8598C190.104 79.9323 183.346 92.4596 181.93 103.572H182.011ZM178.652 80.498L177.641 101.754C180.271 85.0644 192.491 69.2235 204.469 58.7167C204.631 58.7975 204.793 58.8783 204.954 58.9592L206.33 48.4928C195.162 56.4133 185.41 67.0817 178.652 80.5384V80.498ZM203.295 38.2285H180.675L179.138 70.355C186.179 59.242 195.647 49.786 207.099 42.3908C207.342 40.1682 205.561 38.2285 203.295 38.2285ZM164.732 79.8919H149.963L149.032 38.2285H127.747C125.239 38.2285 123.296 40.4107 123.62 42.8757L136.569 150.166C136.812 152.106 138.471 153.56 140.413 153.56H152.067L151.055 108.543H164.611C166.351 108.543 167.727 107.129 167.767 105.431L167.929 83.1247C167.929 81.3466 166.472 79.8515 164.692 79.8515L164.732 79.8919Z" fill="#234EA1"/>
<path fill-rule="evenodd" clip-rule="evenodd" d="M243.558 209.367L244.327 209.731C244.934 209.367 245.662 209.085 246.188 208.6C253.027 201.811 256.749 193.648 256.304 183.909C256.102 179.504 252.743 177.12 248.373 177.807C247.038 178.009 245.662 178.413 244.408 178.898C242.344 179.706 242.425 180.191 243.801 182.009C244.691 183.181 245.541 184.798 245.5 186.172C245.419 189.97 244.853 193.769 244.529 197.568C244.165 201.487 243.882 205.448 243.558 209.408V209.367ZM232.39 207.67C232.632 201.326 233.077 194.981 233.442 188.677C233.442 188.192 233.442 187.667 233.077 187.02C225.349 193.244 219.805 200.841 218.267 211.024C215.799 209.852 215.678 208.074 216.082 206.175C217.256 200.639 220.25 196.032 223.447 191.546C228.465 184.474 234.817 178.857 242.951 175.705C246.593 174.291 250.639 173.523 254.524 173.442C262.941 173.321 268.646 179.666 267.351 187.95C265.49 200.113 259.177 209.489 247.645 214.5C244.043 216.076 242.546 217.854 242.506 221.814C242.425 227.956 242.749 234.018 244.043 240.039C244.286 241.13 243.922 242.343 243.841 243.514C242.587 243.353 241.211 243.434 240.078 242.989C237.164 241.858 235.424 239.393 234.656 236.523C233.765 233.088 233.239 229.492 232.754 225.976C232.754 225.976 231.823 219.106 232.43 207.63L232.39 207.67Z" fill="black"/>
<path fill-rule="evenodd" clip-rule="evenodd" d="M321.776 243.07C323.557 241.777 325.256 240.645 326.834 239.393C328.494 238.059 330.234 236.725 331.609 235.109C332.904 233.614 333.794 231.755 334.968 229.815C330.76 229.088 327.199 228.401 323.597 227.916C323.152 227.875 322.343 228.765 322.019 229.411C320.401 232.886 318.903 236.402 317.325 239.877C316.961 240.645 316.475 241.332 315.99 242.019C312.631 246.626 309.192 246.464 306.643 241.373C305.267 238.665 304.377 235.756 303.163 232.604C302.556 233.331 302.07 233.856 301.665 234.462C301.22 235.19 300.897 235.958 300.532 236.725C299.035 239.756 297.093 242.302 293.289 242.1C289.283 241.858 286.936 239.433 285.601 235.836C282.647 227.875 285.763 214.459 291.913 208.68C295.879 204.963 300.532 203.872 305.752 205.205C309.313 206.135 311.862 209.085 311.943 212.56C311.943 213.57 311.336 214.58 310.972 215.591C310.649 215.55 310.365 215.51 310.042 215.469C309.637 213.893 309.273 212.277 308.787 210.741C307.897 207.832 306.197 206.983 303.567 208.559C301.868 209.569 300.249 211.105 299.157 212.762C295.07 219.066 293.046 226.057 293.087 233.614C293.087 235.958 293.451 238.342 295.798 240.039C298.266 238.221 299.278 235.594 299.966 232.886C300.937 229.128 301.625 225.289 302.556 221.491C303.243 218.743 304.336 217.934 307.047 217.813C309.354 217.732 311.377 218.904 311.863 221.248C312.389 223.834 312.348 226.502 312.55 229.169C312.753 232.361 312.915 235.513 313.198 238.706C313.238 239.271 313.967 239.756 314.371 240.282C314.897 239.877 315.585 239.595 315.909 239.069C319.025 233.533 321.331 227.875 320.481 221.208C319.672 214.985 322.181 209.812 326.996 205.852C330.8 202.7 337.8 202.659 341.685 205.569C342.373 206.094 343.02 207.266 342.939 208.034C342.373 212.641 340.188 216.399 336.303 219.066C336.141 219.187 335.858 219.106 335.373 219.187C335.615 216.358 335.858 213.611 336.141 210.58C332.419 211.267 330.638 213.651 329.303 216.48C328.777 217.571 328.534 218.824 328.413 219.995C328.048 223.552 328.21 223.592 331.771 224.117C334.037 224.481 336.344 224.804 338.488 225.613C341.766 226.825 342.818 229.209 341.442 232.401C338.933 238.342 334.644 242.706 328.696 245.292C325.863 246.505 323.759 245.818 321.776 243.191V243.07Z" fill="black"/>
<path fill-rule="evenodd" clip-rule="evenodd" d="M390 194.941C387.774 195.547 385.589 196.355 383.323 196.719C376.606 197.77 369.848 198.74 363.091 199.588C360.622 199.911 359.489 201.083 359.044 203.427C356.9 214.58 355.888 225.815 356.981 237.17C357.223 239.797 358.276 242.343 358.923 244.929C359.125 245.697 359.166 246.545 359.287 247.313L358.761 247.96C357.223 247.192 355.483 246.667 354.148 245.616C351.518 243.514 350.425 240.443 349.657 237.291C347.471 228.078 347.795 218.783 349.414 209.489C349.778 207.387 349.98 205.246 350.263 203.144C350.547 201.083 349.818 200.275 347.552 199.992C342.858 199.386 338.205 198.497 333.632 197.366C330.921 196.679 328.453 195.183 326.915 192.153C329.748 192.395 332.58 192.637 335.413 192.88C340.066 193.284 344.72 193.688 349.373 194.133C351.356 194.335 352.206 193.607 352.449 191.546C352.894 187.748 353.743 184.03 354.31 180.231C354.593 178.251 355.686 177.686 357.507 177.968C360.501 178.413 362.403 180.676 362.282 184.232C362.201 186.738 361.836 189.243 361.472 191.748C361.189 193.567 361.836 194.173 363.698 194.133C370.577 193.89 377.456 193.729 384.375 193.648C386.237 193.648 388.098 193.931 389.919 194.092C389.919 194.375 389.959 194.658 390 194.941Z" fill="black"/>
<path fill-rule="evenodd" clip-rule="evenodd" d="M281.878 247.515C277.751 247.111 275.161 245.212 273.34 242.181C270.669 237.695 269.901 232.684 269.82 227.633C269.577 212.681 271.114 197.85 273.461 183.101C273.866 180.636 277.144 179.827 279.369 181.969C280.502 183.06 281.19 184.919 281.473 186.576C281.797 188.435 281.473 190.375 281.352 192.274C280.34 204.397 279.207 216.48 278.317 228.603C277.913 234.018 278.843 239.271 280.947 244.323C281.312 245.212 281.514 246.182 281.919 247.515H281.878Z" fill="black"/>
<path fill-rule="evenodd" clip-rule="evenodd" d="M243.558 209.368L244.326 209.732C244.933 209.368 245.662 209.085 246.188 208.6C253.026 201.811 256.749 193.648 256.304 183.909C256.102 179.504 252.743 177.12 248.373 177.807C247.038 178.009 245.662 178.413 244.407 178.898C242.344 179.707 242.425 180.191 243.8 182.01C244.691 183.182 245.54 184.798 245.5 186.172C245.419 189.971 244.853 193.769 244.529 197.568C244.165 201.488 243.881 205.448 243.558 209.408V209.368ZM232.389 207.671C232.632 201.326 233.077 194.982 233.441 188.678C233.441 188.193 233.441 187.667 233.077 187.021C225.348 193.244 219.805 200.841 218.267 211.025C215.799 209.853 215.677 208.075 216.082 206.175C217.255 200.639 220.25 196.032 223.447 191.547C228.464 184.475 234.817 178.858 242.951 175.706C246.592 174.291 250.639 173.524 254.524 173.443C262.94 173.322 268.646 179.666 267.351 187.95C265.49 200.114 259.177 209.489 247.645 214.5C244.043 216.076 242.546 217.854 242.506 221.814C242.425 227.957 242.748 234.018 244.043 240.04C244.286 241.131 243.922 242.343 243.841 243.515C242.586 243.353 241.211 243.434 240.078 242.99C237.164 241.858 235.424 239.393 234.655 236.524C233.765 233.089 233.239 229.492 232.754 225.977C232.754 225.977 231.823 219.107 232.43 207.63L232.389 207.671Z" fill="#C40320"/>
<path fill-rule="evenodd" clip-rule="evenodd" d="M321.776 243.07C323.556 241.777 325.256 240.645 326.834 239.392C328.493 238.059 330.233 236.725 331.609 235.109C332.904 233.614 333.794 231.755 334.967 229.815C330.759 229.088 327.198 228.401 323.597 227.916C323.152 227.875 322.342 228.764 322.019 229.411C320.4 232.886 318.903 236.402 317.325 239.877C316.961 240.645 316.475 241.332 315.989 242.019C312.631 246.626 309.191 246.464 306.642 241.372C305.266 238.665 304.376 235.755 303.162 232.603C302.555 233.331 302.07 233.856 301.665 234.462C301.22 235.19 300.896 235.957 300.532 236.725C299.035 239.756 297.092 242.302 293.289 242.1C289.283 241.857 286.936 239.433 285.6 235.836C282.646 227.875 285.762 214.459 291.913 208.68C295.878 204.962 300.532 203.871 305.752 205.205C309.313 206.134 311.862 209.084 311.943 212.56C311.943 213.57 311.336 214.58 310.972 215.59C310.648 215.55 310.365 215.51 310.041 215.469C309.636 213.893 309.272 212.277 308.787 210.741C307.896 207.832 306.197 206.983 303.567 208.559C301.867 209.569 300.249 211.105 299.156 212.762C295.069 219.066 293.046 226.057 293.086 233.614C293.086 235.957 293.451 238.342 295.797 240.039C298.266 238.22 299.277 235.594 299.965 232.886C300.937 229.128 301.624 225.289 302.555 221.49C303.243 218.742 304.336 217.934 307.047 217.813C309.353 217.732 311.376 218.904 311.862 221.248C312.388 223.834 312.348 226.501 312.55 229.168C312.752 232.361 312.914 235.513 313.197 238.705C313.238 239.271 313.966 239.756 314.371 240.281C314.897 239.877 315.585 239.594 315.908 239.069C319.024 233.533 321.331 227.875 320.481 221.208C319.672 214.984 322.181 209.812 326.996 205.851C330.8 202.699 337.8 202.659 341.685 205.569C342.373 206.094 343.02 207.266 342.939 208.034C342.372 212.64 340.187 216.399 336.303 219.066C336.141 219.187 335.858 219.106 335.372 219.187C335.615 216.358 335.858 213.61 336.141 210.58C332.418 211.266 330.638 213.651 329.302 216.479C328.776 217.571 328.534 218.823 328.412 219.995C328.048 223.551 328.21 223.592 331.771 224.117C334.037 224.481 336.343 224.804 338.488 225.612C341.766 226.825 342.818 229.209 341.442 232.401C338.933 238.342 334.644 242.706 328.695 245.292C325.863 246.505 323.759 245.818 321.776 243.191V243.07Z" fill="#C40320"/>
<path fill-rule="evenodd" clip-rule="evenodd" d="M390 194.941C387.775 195.547 385.59 196.356 383.324 196.719C376.606 197.77 369.849 198.74 363.091 199.588C360.623 199.912 359.49 201.084 359.045 203.427C356.9 214.581 355.888 225.815 356.981 237.17C357.224 239.797 358.276 242.343 358.923 244.929C359.126 245.697 359.166 246.546 359.287 247.313L358.761 247.96C357.224 247.192 355.484 246.667 354.148 245.616C351.518 243.515 350.426 240.444 349.657 237.291C347.472 228.078 347.795 218.783 349.414 209.489C349.778 207.388 349.98 205.246 350.264 203.145C350.547 201.084 349.819 200.275 347.553 199.992C342.859 199.386 338.205 198.497 333.633 197.366C330.922 196.679 328.453 195.184 326.916 192.153C329.748 192.395 332.581 192.638 335.413 192.88C340.067 193.284 344.72 193.688 349.373 194.133C351.356 194.335 352.206 193.608 352.449 191.547C352.894 187.748 353.744 184.03 354.31 180.232C354.593 178.252 355.686 177.686 357.507 177.969C360.501 178.413 362.403 180.676 362.282 184.232C362.201 186.738 361.837 189.243 361.472 191.749C361.189 193.567 361.837 194.173 363.698 194.133C370.577 193.89 377.456 193.729 384.376 193.648C386.237 193.648 388.098 193.931 389.919 194.093C389.919 194.375 389.96 194.658 390 194.941Z" fill="#C40320"/>
<path fill-rule="evenodd" clip-rule="evenodd" d="M281.878 247.515C277.751 247.111 275.161 245.211 273.34 242.181C270.669 237.695 269.901 232.684 269.82 227.633C269.577 212.681 271.114 197.85 273.461 183.1C273.866 180.635 277.144 179.827 279.369 181.969C280.502 183.06 281.19 184.919 281.473 186.576C281.797 188.435 281.473 190.374 281.352 192.274C280.34 204.397 279.207 216.48 278.317 228.603C277.913 234.018 278.843 239.271 280.947 244.322C281.312 245.211 281.514 246.181 281.919 247.515H281.878Z" fill="#C40320"/>
<path fill-rule="evenodd" clip-rule="evenodd" d="M259.744 46.4318C255.252 38.8346 247.928 36.2483 239.552 36.0867H238.702C231.459 36.0867 224.782 38.1072 218.429 41.1784C217.458 41.6229 216.487 42.1483 215.516 42.6736C215.03 42.9161 214.585 43.1989 214.099 43.4818C211.429 45.0174 208.799 46.6743 206.249 48.4927C195.081 56.4132 185.329 67.0816 178.571 80.5384C177.519 82.6397 176.508 84.8219 175.617 87.0849C174.08 90.9239 173.513 94.278 172.987 97.9553C172.623 100.259 174.323 102.118 177.398 103.007C177.438 102.603 177.519 102.158 177.56 101.754C180.19 85.0643 192.41 69.2234 204.388 58.7166C204.55 58.7974 204.712 58.8783 204.873 58.9591C205.116 59.0803 205.319 59.2015 205.521 59.2824C205.48 60.818 205.399 62.3536 205.319 63.9296C204.712 74.4768 204.145 85.0643 203.376 95.6115C203.295 96.9855 202.648 98.8444 201.636 99.4909C200.908 99.9355 199.37 100.501 199.37 100.501L199.047 103.087C199.047 103.087 200.382 104.057 200.867 104.502C203.012 106.442 203.498 108.785 203.619 111.412C203.74 115.534 203.619 119.696 204.186 123.818C205.035 130.082 205.966 136.386 207.625 142.488C208.96 147.418 212.117 151.338 217.296 153.116C219.198 153.762 220.614 154.126 221.626 154.126C222.395 154.126 222.961 153.924 223.325 153.52C223.487 153.318 223.649 153.075 223.73 152.752C223.973 151.782 223.851 150.327 223.366 148.186C220.938 137.073 220.574 125.96 220.938 114.685C221.1 110.038 222.759 107.896 226.927 106.32C246.026 99.0464 256.466 84.2157 261.767 65.2631C263.507 58.9187 263.264 52.3722 259.744 46.5126V46.4318ZM235.586 83.8116C233.28 87.6506 230.245 91.0047 227.331 94.4396C226.32 95.6115 224.701 96.2581 223.366 97.1067C223.123 96.9855 222.88 96.8238 222.638 96.6622C222.799 92.8636 222.88 89.0246 223.204 85.226C223.973 76.8206 224.904 68.4152 225.713 59.9693C226.077 56.0495 226.077 52.2509 222.152 49.6646C221.424 49.1797 221.14 47.9674 220.533 46.9167C224.499 44.9366 228.343 43.2798 232.511 43.2798C233.239 43.2798 233.968 43.3202 234.696 43.4414C240.159 44.2092 243.801 49.2605 243.841 56.1707C243.841 66.1926 240.563 75.3254 235.465 83.8116H235.586Z" fill="#C40320"/>
<path fill-rule="evenodd" clip-rule="evenodd" d="M29.2965 243.555V221.612H10.3185V243.555H0V190.617H10.3185V212.277H29.2965V190.617H39.6151V243.555H29.2965Z" fill="#234EA1"/>
<path fill-rule="evenodd" clip-rule="evenodd" d="M70.8539 220.601C70.8539 217.49 70.3683 215.308 69.4376 214.095C68.5069 212.883 66.8074 212.277 64.4605 212.277C62.1135 212.277 60.414 212.923 59.4428 214.176C58.4717 215.429 57.9456 217.571 57.9052 220.601H70.8539ZM59.807 233.695C60.9805 234.745 62.68 235.271 64.8651 235.271C69.5186 235.271 73.646 235.109 77.2878 234.786L79.392 234.543L79.5538 242.262C73.8078 243.716 68.6283 244.444 63.9749 244.444C58.3503 244.444 54.2229 242.868 51.6736 239.756C49.1243 236.645 47.8699 231.593 47.8699 224.602C47.8699 210.66 53.3731 203.669 64.42 203.669C75.4669 203.669 80.7678 209.529 80.7678 221.248L79.999 228.482H57.9861C58.0265 230.866 58.6335 232.603 59.807 233.654V233.695Z" fill="#234EA1"/>
<path fill-rule="evenodd" clip-rule="evenodd" d="M100.151 227.027C97.3585 227.269 95.9422 228.845 95.9422 231.714C95.9422 234.584 97.1561 235.998 99.6245 235.998C101.526 235.998 103.59 235.675 105.856 235.068L106.989 234.745V226.421L100.191 227.027H100.151ZM117.024 216.762V232.927C117.105 234.179 117.308 235.028 117.631 235.513C117.915 235.998 118.562 236.362 119.493 236.564L119.209 244.403C116.66 244.403 114.637 244.242 113.099 243.878C111.562 243.514 110.024 242.787 108.486 241.696C104.885 243.514 101.203 244.403 97.4799 244.403C89.7511 244.403 85.8665 240.16 85.8665 231.634C85.8665 227.471 86.959 224.562 89.1036 222.784C91.2483 221.046 94.5259 220.036 98.9771 219.712L106.989 219.106V216.682C106.989 215.065 106.625 213.974 105.937 213.368C105.249 212.762 104.116 212.479 102.578 212.479L88.4967 213.085L88.2134 205.852C93.5548 204.356 98.6533 203.589 103.469 203.589C108.284 203.589 111.764 204.639 113.868 206.7C115.972 208.761 117.065 212.075 117.065 216.641L117.024 216.762Z" fill="#234EA1"/>
<path d="M137.459 189.081H127.424V243.555H137.459V189.081Z" fill="#234EA1"/>
<path fill-rule="evenodd" clip-rule="evenodd" d="M168.334 213.489H159.108V229.452C159.108 230.987 159.108 232.119 159.229 232.765C159.31 233.412 159.593 233.978 160.038 234.422C160.524 234.907 161.252 235.109 162.264 235.109L167.97 234.947L168.415 243.272C165.056 244.04 162.507 244.444 160.767 244.444C156.275 244.444 153.2 243.393 151.541 241.292C149.882 239.191 149.073 235.311 149.073 229.654V213.489H144.662V204.599H149.073V193.769H159.108V204.599H168.334V213.489Z" fill="#234EA1"/>
<path fill-rule="evenodd" clip-rule="evenodd" d="M185.248 243.555H175.213V189.081H185.248V206.498C188.687 204.639 191.803 203.71 194.555 203.71C199.532 203.71 203.012 205.246 204.873 208.317C206.775 211.388 207.706 216.116 207.706 222.46V243.555H197.671V222.703C197.671 219.43 197.306 217.005 196.538 215.429C195.769 213.853 194.272 213.045 192.046 213.045C190.104 213.045 188.161 213.368 186.219 213.974L185.248 214.298V243.555Z" fill="#234EA1"/>
<path fill-rule="evenodd" clip-rule="evenodd" d="M5.46269 183.787C3.35852 183.787 1.94225 183.222 1.17342 182.05C0.404589 180.878 0.0404053 178.979 0.0404053 176.312C0.0404053 173.644 0.404589 171.745 1.17342 170.654C1.94225 169.523 3.35852 168.957 5.42223 168.957C6.67664 168.957 8.05244 169.118 9.54964 169.482L9.46871 171.381C8.2143 171.139 6.95989 171.058 5.70548 171.058C4.45107 171.058 3.60131 171.422 3.1562 172.19C2.71108 172.957 2.46829 174.331 2.46829 176.392C2.46829 178.453 2.67062 179.868 3.11573 180.595C3.56085 181.363 4.41061 181.727 5.66502 181.727C6.91943 181.727 8.2143 181.605 9.50917 181.403L9.5901 183.343C8.13337 183.666 6.79803 183.787 5.50316 183.787H5.46269Z" fill="#234EA1"/>
<path fill-rule="evenodd" clip-rule="evenodd" d="M14.1222 181.04C14.4459 181.605 15.0934 181.888 16.0241 181.888C16.9547 181.888 17.6022 181.605 17.9259 181.04C18.2496 180.474 18.4115 179.544 18.4115 178.292C18.4115 177.039 18.2496 176.109 17.8854 175.584C17.5213 175.059 16.9143 174.776 16.0241 174.776C15.1338 174.776 14.5269 175.059 14.1627 175.584C13.839 176.109 13.6366 176.998 13.6366 178.292C13.6366 179.585 13.7985 180.474 14.1222 181.04ZM12.3822 174.21C13.1106 173.281 14.2841 172.836 15.9836 172.836C17.6831 172.836 18.8566 173.281 19.585 174.21C20.3133 175.14 20.6775 176.473 20.6775 178.292C20.6775 180.11 20.3133 181.484 19.6254 182.413C18.9375 183.343 17.7236 183.787 15.9836 183.787C14.2436 183.787 13.0297 183.343 12.3418 182.413C11.6539 181.484 11.2897 180.11 11.2897 178.292C11.2897 176.473 11.6539 175.099 12.3822 174.21Z" fill="#234EA1"/>
<path fill-rule="evenodd" clip-rule="evenodd" d="M27.7994 174.816C26.7069 174.816 25.9381 175.099 25.5739 175.665C25.1692 176.231 25.0074 177.12 25.0074 178.372C25.0074 179.625 25.1692 180.514 25.5334 180.999C25.8571 181.524 26.4236 181.767 27.1115 181.767C27.759 181.767 28.4469 181.646 29.0943 181.444L29.418 181.322V174.897C28.7301 174.857 28.2041 174.816 27.8399 174.816H27.7994ZM26.7878 183.787C25.3311 183.787 24.279 183.383 23.6316 182.575C22.9841 181.767 22.6604 180.353 22.6604 178.292C22.6604 176.231 23.0246 174.857 23.7934 174.048C24.5622 173.24 25.8571 172.836 27.759 172.836C28.4469 172.836 29.499 172.917 30.9152 173.038L31.6031 173.119V188.111H29.3371V183.222C28.4064 183.626 27.5566 183.868 26.7878 183.868V183.787Z" fill="#234EA1"/>
<path fill-rule="evenodd" clip-rule="evenodd" d="M40.991 173.079H43.257V183.585H40.991V182.939C39.9794 183.545 39.0082 183.828 38.1584 183.828C36.7017 183.828 35.7305 183.424 35.245 182.656C34.7594 181.888 34.5166 180.514 34.5166 178.574V173.079H36.8231V178.574C36.8231 179.827 36.9445 180.676 37.1468 181.12C37.3491 181.565 37.8347 181.767 38.6035 181.767C39.3724 181.767 40.0603 181.646 40.6673 181.363L40.991 181.242V173.119V173.079Z" fill="#234EA1"/>
<path fill-rule="evenodd" clip-rule="evenodd" d="M52.4425 177.524C52.4425 176.473 52.2806 175.746 51.9569 175.342C51.6332 174.938 51.0667 174.735 50.2979 174.735C49.529 174.735 48.9625 174.938 48.5983 175.382C48.2342 175.827 48.0723 176.514 48.0318 177.524H52.483H52.4425ZM53.6969 181.686L54.3039 181.605V183.303C52.7662 183.626 51.35 183.787 50.0955 183.787C48.5579 183.787 47.4249 183.343 46.737 182.494C46.0491 181.646 45.7253 180.272 45.7253 178.413C45.7253 174.695 47.263 172.836 50.2979 172.836C53.3327 172.836 54.7085 174.453 54.7085 177.645L54.5467 179.302H48.0318C48.0318 180.15 48.2342 180.797 48.5983 181.201C48.9625 181.605 49.6504 181.807 50.6216 181.807C51.5927 181.807 52.6448 181.767 53.6969 181.686Z" fill="#234EA1"/>
<path fill-rule="evenodd" clip-rule="evenodd" d="M62.7611 175.018H59.8476V179.625C59.8476 180.474 59.9285 181.04 60.0499 181.322C60.1713 181.605 60.495 181.727 61.0211 181.727L62.7611 181.646L62.8824 183.464C61.9518 183.666 61.2234 183.747 60.7378 183.747C59.5643 183.747 58.7146 183.464 58.3099 182.939C57.8648 182.413 57.6625 181.363 57.6625 179.868V175.018H56.3271V173.079H57.6625V170.048H59.9285V173.079H62.842V175.018H62.7611Z" fill="#234EA1"/>
<path fill-rule="evenodd" clip-rule="evenodd" d="M71.0563 177.524C71.0563 176.473 70.8944 175.746 70.5707 175.342C70.247 174.938 69.6805 174.735 68.9116 174.735C68.1428 174.735 67.5763 174.938 67.2121 175.382C66.8479 175.827 66.6861 176.514 66.6456 177.524H71.0967H71.0563ZM72.3107 181.686L72.9177 181.605V183.303C71.38 183.626 69.9637 183.787 68.7093 183.787C67.1716 183.787 66.0386 183.343 65.3507 182.494C64.6628 181.646 64.3391 180.272 64.3391 178.413C64.3391 174.695 65.8768 172.836 68.9116 172.836C71.9465 172.836 73.3223 174.453 73.3223 177.645L73.1604 179.302H66.6456C66.6456 180.15 66.8479 180.797 67.2121 181.201C67.5763 181.605 68.2642 181.807 69.2354 181.807C70.2065 181.807 71.2586 181.767 72.3107 181.686Z" fill="#234EA1"/>
<path d="M78.1375 168.714H75.8311V183.585H78.1375V168.714Z" fill="#234EA1"/>
<path fill-rule="evenodd" clip-rule="evenodd" d="M87.485 177.524C87.485 176.473 87.3231 175.746 86.9994 175.342C86.6757 174.938 86.1092 174.735 85.3404 174.735C84.5715 174.735 84.005 174.938 83.6408 175.382C83.2766 175.827 83.1148 176.514 83.0743 177.524H87.5254H87.485ZM88.7394 181.686L89.3464 181.605V183.303C87.8087 183.626 86.3924 183.787 85.138 183.787C83.6004 183.787 82.4673 183.343 81.7794 182.494C81.0915 181.646 80.7678 180.272 80.7678 178.413C80.7678 174.695 82.3055 172.836 85.3404 172.836C88.3752 172.836 89.751 174.453 89.751 177.645L89.5892 179.302H83.0743C83.0743 180.15 83.2766 180.797 83.6408 181.201C84.005 181.605 84.6929 181.807 85.6641 181.807C86.6352 181.807 87.6873 181.767 88.7394 181.686Z" fill="#234EA1"/>
<path fill-rule="evenodd" clip-rule="evenodd" d="M92.1384 173.079H94.4449V183.585H92.1384V173.079ZM92.1384 168.876H94.4449V171.301H92.1384V168.876Z" fill="#234EA1"/>
<path fill-rule="evenodd" clip-rule="evenodd" d="M97.3989 183.545V173.038H99.665V174.291C100.838 173.523 102.052 173.038 103.226 172.796V175.099C102.012 175.342 101 175.625 100.151 176.029L99.7054 176.231V183.545H97.3989Z" fill="#234EA1"/>
<path fill-rule="evenodd" clip-rule="evenodd" d="M108.284 178.898C107.313 178.979 106.827 179.504 106.827 180.474C106.827 181.444 107.272 181.929 108.122 181.929C108.81 181.929 109.579 181.807 110.348 181.605L110.712 181.484V178.696L108.284 178.938V178.898ZM112.978 176.312V181.08C112.978 181.403 113.059 181.605 113.221 181.767C113.383 181.929 113.585 182.01 113.909 182.05L113.828 183.788C112.614 183.788 111.683 183.545 111.036 183.02C109.903 183.545 108.77 183.788 107.637 183.788C105.532 183.788 104.521 182.656 104.521 180.434C104.521 179.383 104.804 178.615 105.371 178.13C105.937 177.645 106.827 177.362 108.001 177.281L110.712 177.039V176.271C110.712 175.705 110.59 175.301 110.348 175.099C110.105 174.857 109.741 174.776 109.255 174.776C108.365 174.776 107.232 174.816 105.897 174.938H105.209L105.128 173.362C106.665 172.998 108.041 172.796 109.336 172.796C110.631 172.796 111.562 173.079 112.128 173.645C112.695 174.21 112.978 175.059 112.978 176.271V176.312Z" fill="#234EA1"/>
<path fill-rule="evenodd" clip-rule="evenodd" d="M123.337 175.221C121.678 174.978 120.504 174.897 119.735 174.897C118.967 174.897 118.481 174.978 118.198 175.14C117.915 175.301 117.753 175.584 117.753 175.988C117.753 176.392 117.915 176.635 118.238 176.797C118.562 176.958 119.29 177.12 120.464 177.322C121.637 177.524 122.447 177.847 122.973 178.292C123.458 178.736 123.701 179.504 123.701 180.595C123.701 181.686 123.337 182.494 122.649 183.02C121.961 183.545 120.909 183.788 119.533 183.788C118.683 183.788 117.591 183.666 116.296 183.424L115.648 183.303L115.729 181.403C117.429 181.646 118.602 181.727 119.371 181.727C120.14 181.727 120.626 181.646 120.949 181.444C121.273 181.242 121.435 180.959 121.435 180.555C121.435 180.151 121.273 179.827 120.99 179.666C120.707 179.504 119.978 179.342 118.845 179.14C117.712 178.938 116.862 178.655 116.336 178.251C115.81 177.847 115.527 177.12 115.527 176.029C115.527 174.938 115.891 174.129 116.62 173.604C117.348 173.079 118.279 172.796 119.452 172.796C120.342 172.796 121.435 172.917 122.77 173.119L123.418 173.24V175.14L123.337 175.221Z" fill="#234EA1"/>
</g>
<defs>
<clipPath id="clip0_804_1218">
<rect width="390" height="248" fill="white"/>
</clipPath>
</defs>
</svg>
