<svg width="200" height="96" viewBox="0 0 200 96" fill="none" xmlns="http://www.w3.org/2000/svg">
<path fill-rule="evenodd" clip-rule="evenodd" d="M78.8813 6.05356V4.92408C78.8813 4.67652 79.005 4.45991 79.2059 4.32066C80.4268 3.48515 84.5839 0.700124 91.8783 0.0193404C92.141 -0.0116043 94.4282 0.00386809 96.8236 0.00386809C99.1727 0.00386809 101.63 0.00386809 102.449 0.00386809C102.603 0.00386809 102.727 0.127647 102.727 0.282371C102.727 0.437094 102.603 0.560873 102.449 0.560873H91.8783C91.8783 0.560873 87.0257 0.823903 81.6476 3.4542C81.6013 3.48515 81.6476 6.17734 81.6476 6.17734L78.8968 6.08451L78.8813 6.05356Z" fill="#234EA1"/>
<path fill-rule="evenodd" clip-rule="evenodd" d="M80.1488 3.98029C79.2833 3.98029 78.5879 4.67654 78.5879 5.54299V8.69936H81.7096V5.54299C81.7096 4.67654 81.0142 3.98029 80.1488 3.98029Z" fill="#234EA1"/>
<path d="M100.78 1.04053H92.7593V5.46562H100.78V1.04053Z" fill="#234EA1"/>
<path fill-rule="evenodd" clip-rule="evenodd" d="M101.676 0.529907H91.8628V1.10238C91.8628 1.61297 92.2801 2.01525 92.7746 2.01525H100.749C101.259 2.01525 101.661 1.5975 101.661 1.10238V0.529907H101.676Z" fill="#234EA1"/>
<path fill-rule="evenodd" clip-rule="evenodd" d="M105.323 13.5267H73.4106C73.4106 11.8557 74.7552 10.5096 76.4242 10.4941H102.294C103.964 10.4941 105.308 11.8557 105.323 13.5267Z" fill="#234EA1"/>
<path fill-rule="evenodd" clip-rule="evenodd" d="M76.4085 9.39564C76.4085 9.39564 76.4085 9.13261 76.4085 8.90053C76.4085 8.68391 76.4085 8.49824 76.7485 8.35899C83.8883 5.60491 94.4435 3.25311 101.63 2.68064C101.985 2.64969 102.279 2.91272 102.279 3.25311V9.39564C102.279 9.39564 102.232 9.51942 102.155 9.51942H76.3931V9.39564H76.4085Z" fill="#234EA1"/>
<path fill-rule="evenodd" clip-rule="evenodd" d="M95.7264 39.644L95.4483 41.7019L93.9338 41.2377L93.0838 58.7834H98.4C99.1264 58.7834 99.7445 58.2418 99.8373 57.5146L101.954 41.5162C101.893 41.4234 101.831 41.346 101.738 41.2686C101.676 41.2068 101.414 41.0056 101.197 40.8509L100.347 40.232L100.486 39.1953L100.625 38.2206L100.765 37.1839L101.738 36.8126C101.862 36.7662 101.985 36.7043 102.094 36.6579C102.109 36.596 102.14 36.5186 102.14 36.4567C102.356 33.2849 102.542 30.0512 102.727 26.9258L102.758 26.3533C98.8173 30.5927 96.2364 35.3891 95.6955 39.644H95.7264ZM94.4438 30.8093L94.0574 38.9478C95.0619 32.5577 99.7291 26.4925 104.304 22.4697C104.365 22.5007 104.427 22.5316 104.489 22.5626L105.014 18.5552C100.749 21.5878 97.0246 25.6725 94.4438 30.8248V30.8093ZM103.855 14.6252H95.2165L94.6292 26.9258C97.3182 22.6709 100.935 19.0503 105.308 16.2189C105.401 15.3679 104.721 14.6252 103.855 14.6252ZM89.1275 30.5772H83.4868L83.1313 14.6252H75.0024C74.0443 14.6252 73.3025 15.4608 73.4261 16.4046L78.3714 57.4837C78.4641 58.2264 79.0978 58.7834 79.8396 58.7834H84.2904L83.904 41.5471H89.0812C89.7457 41.5471 90.2711 41.0056 90.2866 40.3558L90.3484 31.815C90.3484 31.1343 89.7921 30.5618 89.1121 30.5618L89.1275 30.5772Z" fill="#234EA1"/>
<path fill-rule="evenodd" clip-rule="evenodd" d="M125.414 17.7662C123.699 14.8574 120.901 13.8671 117.702 13.8052H117.378C114.612 13.8052 112.062 14.5789 109.635 15.7548C109.264 15.9249 108.894 16.1261 108.523 16.3272C108.337 16.4201 108.167 16.5284 107.982 16.6367C106.962 17.2246 105.957 17.859 104.984 18.5553C100.718 21.5878 96.9938 25.6725 94.413 30.8248C94.0112 31.6294 93.6248 32.4649 93.2848 33.3314C92.6976 34.8012 92.4812 36.0854 92.2803 37.4934C92.1412 38.3753 92.7903 39.0871 93.9648 39.4275C93.9803 39.2727 94.0112 39.1025 94.0266 38.9478C95.0312 32.5577 99.6983 26.4926 104.273 22.4698C104.335 22.5007 104.396 22.5316 104.458 22.5626C104.551 22.609 104.628 22.6554 104.705 22.6864C104.69 23.2743 104.659 23.8623 104.628 24.4657C104.396 28.504 104.18 32.5577 103.886 36.596C103.855 37.1221 103.608 37.8338 103.222 38.0814C102.944 38.2516 102.356 38.4682 102.356 38.4682L102.233 39.4584C102.233 39.4584 102.743 39.8297 102.928 39.9999C103.747 40.7426 103.933 41.64 103.979 42.6457C104.025 44.2239 103.979 45.8175 104.195 47.3957C104.52 49.7939 104.875 52.2076 105.509 54.544C106.019 56.4316 107.224 57.9324 109.203 58.6132C109.929 58.8607 110.47 59 110.856 59C111.15 59 111.366 58.9226 111.505 58.7679C111.567 58.6906 111.629 58.5977 111.66 58.4739C111.753 58.1026 111.706 57.5456 111.521 56.7256C110.593 52.4707 110.454 48.2158 110.593 43.899C110.655 42.1197 111.289 41.2996 112.881 40.6962C120.175 37.9112 124.162 32.2328 126.187 24.9763C126.851 22.5471 126.759 20.0406 125.414 17.7971V17.7662ZM116.188 32.0781C115.307 33.548 114.148 34.8322 113.035 36.1473C112.649 36.596 112.031 36.8436 111.521 37.1685C111.428 37.1221 111.335 37.0602 111.243 36.9983C111.304 35.5439 111.335 34.074 111.459 32.6196C111.753 29.4014 112.108 26.1831 112.417 22.9494C112.556 21.4486 112.556 19.9942 111.057 19.0039C110.779 18.8183 110.671 18.3541 110.439 17.9518C111.953 17.1937 113.422 16.5593 115.013 16.5593C115.292 16.5593 115.57 16.5748 115.848 16.6212C117.934 16.9152 119.325 18.8492 119.341 21.495C119.341 25.3321 118.089 28.8289 116.142 32.0781H116.188Z" fill="#C40320"/>
<path d="M2.368 89V67.24H9.888L13.728 83.112L17.568 67.24H25.088V89H20.672V72.168H20.192L15.936 88.04H11.52L7.264 72.168H6.784V89H2.368ZM30.1293 74.824C31.2599 73.352 33.1479 72.616 35.7933 72.616C38.4386 72.616 40.3266 73.352 41.4573 74.824C42.5879 76.2747 43.1533 78.3227 43.1533 80.968C43.1533 86.5787 40.6999 89.384 35.7933 89.384C30.8866 89.384 28.4333 86.5787 28.4333 80.968C28.4333 78.3227 28.9986 76.2747 30.1293 74.824ZM33.4253 84.584C33.8733 85.352 34.6626 85.736 35.7933 85.736C36.9239 85.736 37.7026 85.352 38.1293 84.584C38.5773 83.816 38.8013 82.6107 38.8013 80.968C38.8013 79.3253 38.5773 78.1307 38.1293 77.384C37.7026 76.6373 36.9239 76.264 35.7933 76.264C34.6626 76.264 33.8733 76.6373 33.4253 77.384C32.9986 78.1307 32.7853 79.3253 32.7853 80.968C32.7853 82.6107 32.9986 83.816 33.4253 84.584ZM52.2805 72.616C53.3898 72.616 54.8085 72.7867 56.5365 73.128L57.4005 73.32L57.2725 76.712C55.5872 76.5413 54.3392 76.456 53.5285 76.456C52.0565 76.456 51.0752 76.776 50.5845 77.416C50.1152 78.0347 49.8805 79.2187 49.8805 80.968C49.8805 82.7173 50.1152 83.9227 50.5845 84.584C51.0752 85.224 52.0672 85.544 53.5605 85.544L57.2725 85.288L57.4005 88.712C55.1178 89.16 53.3792 89.384 52.1845 89.384C49.8165 89.384 48.1098 88.7227 47.0645 87.4C46.0405 86.056 45.5285 83.912 45.5285 80.968C45.5285 78.024 46.0618 75.9013 47.1285 74.6C48.1952 73.2773 49.9125 72.616 52.2805 72.616ZM64.8658 89H60.5778V66.6H64.8658V79.336L66.4978 79.048L69.6658 73H74.4658L70.3058 80.584L74.6898 89H69.8578L66.6258 82.76L64.8658 83.048V89ZM86.4865 73H90.7745V89H86.5185V88.104C84.9825 88.9573 83.6492 89.384 82.5185 89.384C80.2998 89.384 78.8065 88.776 78.0385 87.56C77.2705 86.3227 76.8865 84.264 76.8865 81.384V73H81.1745V81.448C81.1745 83.0267 81.3025 84.104 81.5585 84.68C81.8145 85.256 82.4332 85.544 83.4145 85.544C84.3532 85.544 85.2385 85.3947 86.0705 85.096L86.4865 84.968V73ZM94.734 95.72V73H98.99V73.864C100.377 73.032 101.593 72.616 102.638 72.616C104.793 72.616 106.382 73.2667 107.406 74.568C108.43 75.848 108.942 78.0347 108.942 81.128C108.942 84.2213 108.377 86.376 107.246 87.592C106.115 88.7867 104.259 89.384 101.678 89.384C100.974 89.384 100.217 89.32 99.406 89.192L99.022 89.128V95.72H94.734ZM101.806 76.456C101.017 76.456 100.217 76.616 99.406 76.936L99.022 77.096V85.48C99.982 85.608 100.761 85.672 101.358 85.672C102.595 85.672 103.438 85.3093 103.886 84.584C104.355 83.8587 104.59 82.6213 104.59 80.872C104.59 77.928 103.662 76.456 101.806 76.456Z" fill="#234EA1"/>
<path d="M133.316 57.576C134.041 57.576 134.681 57.7573 135.236 58.12C135.812 58.4613 136.302 58.8987 136.708 59.432C137.113 59.944 137.433 60.5093 137.668 61.128C137.924 61.7467 138.084 62.3227 138.148 62.856C138.233 63.368 138.222 63.8053 138.116 64.168C138.03 64.5093 137.86 64.68 137.604 64.68C137.412 64.68 137.166 64.5733 136.868 64.36C136.569 64.1467 136.206 63.9227 135.78 63.688C135.374 63.432 134.905 63.1973 134.372 62.984C133.86 62.7707 133.284 62.664 132.644 62.664C131.684 62.664 130.649 62.8987 129.54 63.368C128.452 63.816 127.385 64.3813 126.34 65.064C125.316 65.7467 124.356 66.4827 123.46 67.272C122.564 68.0613 121.849 68.7973 121.316 69.48C120.782 70.1627 120.462 70.7387 120.356 71.208C120.249 71.656 120.473 71.88 121.028 71.88C121.39 71.88 121.87 71.7733 122.468 71.56C123.086 71.3253 123.812 71.0693 124.644 70.792C125.497 70.5147 126.457 70.2693 127.524 70.056C128.59 69.8213 129.785 69.704 131.108 69.704C132.836 69.704 134.212 69.896 135.236 70.28C136.26 70.6427 137.049 71.112 137.604 71.688C138.158 72.264 138.521 72.904 138.692 73.608C138.862 74.2907 138.948 74.9413 138.948 75.56C138.948 77.032 138.681 78.44 138.148 79.784C137.614 81.1067 136.9 82.3333 136.003 83.464C135.129 84.5947 134.116 85.6187 132.964 86.536C131.833 87.432 130.649 88.2 129.412 88.84C128.196 89.4587 126.969 89.9387 125.732 90.28C124.516 90.6213 123.385 90.792 122.34 90.792C121.828 90.792 121.241 90.6747 120.58 90.44C119.94 90.2053 119.342 89.8427 118.788 89.352C118.233 88.8827 117.764 88.296 117.38 87.592C116.995 86.8667 116.803 86.024 116.803 85.064C116.803 84.552 116.91 84.1893 117.123 83.976C117.337 83.7413 117.572 83.6347 117.828 83.656C118.084 83.6773 118.318 83.8053 118.532 84.04C118.745 84.2747 118.852 84.5947 118.852 85C118.852 85.3627 118.948 85.672 119.14 85.928C119.353 86.1627 119.609 86.3547 119.908 86.504C120.206 86.632 120.516 86.728 120.836 86.792C121.177 86.8347 121.465 86.856 121.7 86.856C122.34 86.856 123.076 86.7067 123.908 86.408C124.74 86.1093 125.593 85.704 126.468 85.192C127.342 84.6587 128.196 84.04 129.028 83.336C129.881 82.6107 130.638 81.8427 131.3 81.032C131.961 80.2 132.494 79.3467 132.9 78.472C133.305 77.576 133.508 76.68 133.508 75.784C133.508 75.1867 133.476 74.632 133.412 74.12C133.348 73.5867 133.22 73.128 133.028 72.744C132.836 72.3387 132.569 72.0293 132.228 71.816C131.886 71.5813 131.438 71.464 130.884 71.464C129.604 71.464 128.398 71.6133 127.268 71.912C126.137 72.2107 125.134 72.5413 124.26 72.904C123.385 73.2453 122.649 73.5653 122.052 73.864C121.476 74.1413 121.081 74.28 120.868 74.28C120.441 74.28 120.014 74.184 119.588 73.992C119.182 73.8 118.82 73.5547 118.5 73.256C118.18 72.936 117.913 72.5947 117.7 72.232C117.508 71.8693 117.412 71.5173 117.412 71.176C117.412 70.3227 117.657 69.3947 118.148 68.392C118.66 67.3893 119.332 66.3867 120.164 65.384C120.996 64.36 121.956 63.3893 123.044 62.472C124.132 61.5333 125.262 60.7013 126.436 59.976C127.609 59.2507 128.782 58.6747 129.956 58.248C131.15 57.8 132.27 57.576 133.316 57.576ZM160.738 66.632C161.207 66.6533 161.41 66.76 161.346 66.952C161.303 67.1227 161.079 67.272 160.674 67.4C160.034 67.592 159.212 67.7947 158.21 68.008C157.207 68.2213 156.108 68.424 154.914 68.616C153.719 68.7867 152.46 68.9573 151.138 69.128C149.815 69.2773 148.503 69.4053 147.202 69.512C147.01 70.6427 146.807 71.8053 146.594 73C146.402 74.1947 146.22 75.368 146.05 76.52C145.9 77.6507 145.772 78.728 145.666 79.752C145.559 80.776 145.506 81.6827 145.506 82.472C145.506 83.88 145.57 85.096 145.698 86.12C145.826 87.1227 145.975 87.9653 146.146 88.648C146.316 89.3307 146.487 89.8747 146.658 90.28C146.828 90.6853 146.946 90.984 147.01 91.176C147.074 91.3893 147.063 91.528 146.978 91.592C146.892 91.656 146.69 91.688 146.37 91.688C145.879 91.688 145.356 91.4533 144.802 90.984C144.247 90.536 143.724 89.864 143.234 88.968C142.764 88.0507 142.37 86.9307 142.049 85.608C141.73 84.264 141.57 82.7173 141.57 80.968C141.57 79.3253 141.698 77.5227 141.954 75.56C142.21 73.576 142.498 71.6347 142.818 69.736C142.071 69.7573 141.367 69.7573 140.706 69.736C140.066 69.6933 139.468 69.64 138.913 69.576C138.124 69.4907 137.388 69.3413 136.705 69.128C136.023 68.8933 135.393 68.6373 134.817 68.36C134.22 68.0613 133.687 67.7627 133.217 67.464C132.727 67.144 132.279 66.8453 131.873 66.568C131.532 66.3333 131.415 66.1413 131.521 65.992C131.607 65.8213 131.767 65.7573 132.001 65.8C133.601 66.12 135.372 66.3653 137.313 66.536C139.255 66.6853 141.26 66.792 143.33 66.856L143.522 65.896C143.756 64.616 143.959 63.528 144.13 62.632C144.3 61.736 144.386 61.1067 144.386 60.744C144.386 59.976 144.588 59.5067 144.994 59.336C145.399 59.144 145.847 59.1547 146.338 59.368C146.828 59.56 147.276 59.912 147.682 60.424C148.087 60.9147 148.29 61.4587 148.29 62.056C148.29 62.376 148.247 62.856 148.161 63.496C148.076 64.136 147.97 64.904 147.842 65.8L147.65 66.888C149.015 66.888 150.348 66.8773 151.65 66.856C152.951 66.8133 154.167 66.7813 155.298 66.76C156.45 66.7173 157.484 66.6853 158.402 66.664C159.34 66.6427 160.119 66.632 160.738 66.632ZM160.17 83.976C160.17 84.9147 160.224 85.6933 160.33 86.312C160.458 86.9093 160.554 87.3893 160.618 87.752C160.704 88.0933 160.725 88.3387 160.682 88.488C160.64 88.6373 160.458 88.712 160.138 88.712C159.626 88.712 159.104 88.6267 158.57 88.456C158.058 88.264 157.589 87.9653 157.162 87.56C156.757 87.1547 156.416 86.632 156.138 85.992C155.882 85.352 155.754 84.584 155.754 83.688C155.754 83.4533 155.754 83.208 155.754 82.952C155.754 82.696 155.765 82.4187 155.786 82.12L153.354 88.232C153.418 88.4027 153.472 88.552 153.514 88.68C153.578 88.808 153.61 88.9573 153.61 89.128C153.61 89.2773 153.493 89.3733 153.258 89.416C153.024 89.4587 152.725 89.4267 152.362 89.32C152 89.2347 151.616 89.0747 151.21 88.84C150.805 88.584 150.421 88.232 150.058 87.784C149.696 87.3147 149.397 86.7387 149.162 86.056C148.928 85.3733 148.81 84.5627 148.81 83.624C148.81 82.7493 148.853 81.7893 148.938 80.744C149.024 79.6773 149.109 78.6533 149.194 77.672C149.301 76.6907 149.397 75.816 149.482 75.048C149.568 74.28 149.61 73.7573 149.61 73.48C149.61 73.288 149.568 73.096 149.482 72.904C149.418 72.6907 149.365 72.4987 149.322 72.328C149.301 72.1573 149.333 72.0187 149.418 71.912C149.525 71.8053 149.76 71.752 150.122 71.752C150.549 71.752 150.976 71.816 151.402 71.944C151.85 72.0507 152.256 72.2 152.618 72.392C152.981 72.584 153.28 72.808 153.514 73.064C153.749 73.32 153.866 73.5867 153.866 73.864C153.866 74.1627 153.802 74.6107 153.674 75.208C153.546 75.8053 153.408 76.52 153.258 77.352C153.109 78.184 152.97 79.1227 152.842 80.168C152.714 81.192 152.65 82.2693 152.65 83.4C152.65 84.36 152.682 85.1387 152.746 85.736C152.81 86.3333 152.896 86.824 153.002 87.208C153.152 86.8453 153.354 86.3653 153.61 85.768C153.866 85.1707 154.122 84.5307 154.378 83.848C154.656 83.144 154.933 82.4293 155.21 81.704C155.488 80.9573 155.722 80.264 155.914 79.624C155.957 79.0267 155.989 78.4933 156.01 78.024C156.032 77.5547 156.042 77.2347 156.042 77.064C156.042 76.7653 156.096 76.456 156.202 76.136C156.309 75.816 156.554 75.656 156.938 75.656C157.13 75.656 157.429 75.6773 157.834 75.72C158.261 75.7627 158.677 75.8587 159.082 76.008C159.509 76.136 159.882 76.328 160.202 76.584C160.522 76.8187 160.682 77.128 160.682 77.512C160.682 77.768 160.65 78.0347 160.586 78.312C160.544 78.568 160.49 78.92 160.426 79.368C160.362 79.816 160.298 80.4027 160.234 81.128C160.192 81.8533 160.17 82.8027 160.17 83.976ZM178.378 63.848C178.378 64.1467 178.25 64.7867 177.994 65.768C177.759 66.7493 177.493 67.9547 177.194 69.384C176.917 70.8133 176.65 72.4027 176.394 74.152C176.159 75.88 176.042 77.6293 176.042 79.4C176.042 81.448 176.095 83.1867 176.202 84.616C176.309 86.024 176.426 87.1973 176.554 88.136C176.682 89.0747 176.81 89.8 176.938 90.312C177.066 90.8453 177.162 91.24 177.226 91.496C177.29 91.752 177.29 91.9013 177.226 91.944C177.162 92.008 177.013 92.04 176.778 92.04C176.095 92.04 175.498 91.8693 174.986 91.528C174.495 91.1867 174.069 90.76 173.706 90.248C173.343 89.7573 173.045 89.224 172.81 88.648C172.575 88.0507 172.383 87.5067 172.234 87.016C172.106 86.504 172.01 86.0773 171.946 85.736C171.882 85.3947 171.829 85.224 171.786 85.224C171.722 85.224 171.573 85.4267 171.338 85.832C171.103 86.216 170.794 86.6533 170.41 87.144C170.047 87.6133 169.61 88.0507 169.098 88.456C168.586 88.84 168.01 89.032 167.37 89.032C166.73 89.032 166.101 88.9253 165.482 88.712C164.863 88.4773 164.309 88.1147 163.818 87.624C163.349 87.1333 162.965 86.504 162.666 85.736C162.389 84.9467 162.25 83.9973 162.25 82.888C162.25 82.184 162.314 81.4267 162.442 80.616C162.57 79.8053 162.762 78.9947 163.018 78.184C163.274 77.352 163.594 76.552 163.978 75.784C164.383 75.016 164.842 74.344 165.354 73.768C165.887 73.1707 166.474 72.7013 167.114 72.36C167.775 71.9973 168.501 71.816 169.29 71.816C170.186 71.816 170.911 71.848 171.466 71.912C172.021 71.976 172.458 72.1893 172.778 72.552C172.927 71.3573 173.087 70.1733 173.258 69C173.45 67.8053 173.621 66.7387 173.77 65.8C173.919 64.84 174.037 64.0613 174.122 63.464C174.229 62.8667 174.282 62.5467 174.282 62.504C174.282 62.376 174.314 62.216 174.378 62.024C174.442 61.832 174.623 61.736 174.922 61.736C175.071 61.736 175.338 61.8 175.722 61.928C176.106 62.0347 176.49 62.184 176.874 62.376C177.279 62.568 177.631 62.792 177.93 63.048C178.229 63.304 178.378 63.5707 178.378 63.848ZM172.074 79.624C172.074 79.2827 172.085 78.8987 172.106 78.472C172.149 78.024 172.191 77.5333 172.234 77C171.978 77.0213 171.743 77.0107 171.53 76.968C171.317 76.904 171.21 76.7867 171.21 76.616C171.21 76.4453 171.242 76.1787 171.306 75.816C171.37 75.4533 171.413 75.0907 171.434 74.728C171.455 74.344 171.423 74.0133 171.338 73.736C171.253 73.4587 171.061 73.32 170.762 73.32C170.165 73.32 169.599 73.6507 169.066 74.312C168.554 74.952 168.095 75.816 167.69 76.904C167.306 77.9707 166.997 79.1973 166.762 80.584C166.549 81.9707 166.442 83.4 166.442 84.872C166.442 85.1707 166.474 85.5013 166.538 85.864C166.623 86.2267 166.741 86.568 166.89 86.888C167.039 87.1867 167.21 87.4427 167.402 87.656C167.615 87.8693 167.839 87.976 168.074 87.976C168.223 87.976 168.426 87.816 168.682 87.496C168.959 87.1547 169.247 86.7173 169.546 86.184C169.845 85.6507 170.143 85.064 170.442 84.424C170.741 83.784 171.007 83.1547 171.242 82.536C171.498 81.9173 171.701 81.352 171.85 80.84C171.999 80.3067 172.074 79.9013 172.074 79.624ZM184.946 69.608C184.946 70.0987 184.786 70.44 184.466 70.632C184.167 70.8027 183.783 70.8773 183.314 70.856C182.866 70.8133 182.365 70.696 181.81 70.504C181.277 70.312 180.775 70.0773 180.306 69.8C179.858 69.5227 179.485 69.2347 179.186 68.936C178.866 68.616 178.706 68.3173 178.706 68.04C178.706 67.6347 178.791 67.3253 178.962 67.112C179.111 66.8987 179.314 66.7493 179.57 66.664C179.847 66.5573 180.167 66.504 180.53 66.504C180.893 66.4827 181.277 66.472 181.682 66.472C182.066 66.472 182.45 66.5787 182.834 66.792C183.239 67.0053 183.591 67.272 183.89 67.592C184.21 67.912 184.466 68.2533 184.658 68.616C184.85 68.9787 184.946 69.3093 184.946 69.608ZM188.562 79.592C188.626 79.4 188.701 79.272 188.786 79.208C188.871 79.1227 188.957 79.1013 189.042 79.144C189.127 79.1653 189.191 79.2293 189.234 79.336C189.277 79.4213 189.287 79.528 189.266 79.656C189.202 79.912 189.074 80.3173 188.882 80.872C188.711 81.4053 188.487 82.0133 188.21 82.696C187.954 83.3573 187.655 84.0507 187.314 84.776C186.994 85.48 186.653 86.1307 186.29 86.728C185.927 87.304 185.554 87.784 185.17 88.168C184.786 88.5307 184.413 88.712 184.05 88.712H183.986C182.941 88.712 182.109 88.392 181.49 87.752C180.871 87.0907 180.402 86.2907 180.082 85.352C179.762 84.4133 179.549 83.4427 179.442 82.44C179.357 81.416 179.314 80.5307 179.314 79.784C179.314 78.8667 179.325 78.0773 179.346 77.416C179.389 76.7547 179.431 76.2 179.474 75.752C179.538 75.304 179.581 74.9413 179.602 74.664C179.645 74.3653 179.666 74.12 179.666 73.928C179.666 73.5867 179.869 73.3947 180.274 73.352C180.701 73.288 181.17 73.3413 181.682 73.512C182.194 73.6827 182.653 73.9387 183.058 74.28C183.485 74.6 183.698 74.9627 183.698 75.368C183.698 75.6667 183.687 75.9973 183.666 76.36C183.645 76.7227 183.623 77.1067 183.602 77.512C183.581 77.9173 183.559 78.3227 183.538 78.728C183.517 79.112 183.506 79.4747 183.506 79.816C183.506 81.544 183.634 82.952 183.89 84.04C184.167 85.128 184.445 85.9813 184.722 86.6C184.935 86.4933 185.17 86.2587 185.426 85.896C185.703 85.5333 185.981 85.1173 186.258 84.648C186.535 84.1787 186.802 83.6773 187.058 83.144C187.314 82.6107 187.549 82.1093 187.762 81.64C187.975 81.1493 188.146 80.7227 188.274 80.36C188.423 79.9973 188.519 79.7413 188.562 79.592ZM194.388 72.008C194.857 72.008 195.294 72.1253 195.7 72.36C196.105 72.5947 196.457 72.9787 196.756 73.512C197.054 74.0453 197.289 74.7387 197.46 75.592C197.652 76.424 197.748 77.448 197.748 78.664C197.748 79.88 197.641 81.1173 197.428 82.376C197.214 83.6133 196.873 84.7333 196.404 85.736C195.934 86.7387 195.326 87.56 194.58 88.2C193.854 88.8187 192.969 89.128 191.924 89.128C190.985 89.128 190.206 88.8933 189.588 88.424C188.99 87.9333 188.51 87.3253 188.148 86.6C187.806 85.8533 187.572 85.0427 187.444 84.168C187.316 83.272 187.252 82.4187 187.252 81.608C187.252 80.8613 187.294 80.0933 187.38 79.304C187.465 78.4933 187.614 77.7467 187.828 77.064C188.041 76.3813 188.34 75.7947 188.724 75.304C189.107 74.8133 189.588 74.504 190.164 74.376C190.356 73.8427 190.612 73.416 190.932 73.096C191.252 72.776 191.604 72.5413 191.988 72.392C192.372 72.2213 192.766 72.1147 193.172 72.072C193.598 72.0293 194.004 72.008 194.388 72.008ZM193.524 87.432C193.865 87.432 194.196 87.1013 194.516 86.44C194.836 85.7787 195.113 84.9467 195.348 83.944C195.582 82.9413 195.753 81.864 195.86 80.712C195.988 79.5387 196.02 78.4507 195.956 77.448C195.892 76.4453 195.721 75.6133 195.444 74.952C195.166 74.2907 194.74 73.96 194.164 73.96C193.908 73.96 193.726 74.1413 193.62 74.504C193.513 74.8667 193.417 75.2933 193.332 75.784C193.246 76.2533 193.14 76.7333 193.012 77.224C192.884 77.7147 192.681 78.088 192.404 78.344C192.404 79.304 192.372 80.3173 192.308 81.384C192.244 82.4507 192.212 83.432 192.212 84.328C192.233 85.224 192.329 85.9707 192.5 86.568C192.692 87.144 193.033 87.432 193.524 87.432Z" fill="#C40320"/>
</svg>
